Patient4_TMGait_0pt4_01_left_32_EMG.mot
version=1
nRows=16
nColumns=33
inDegrees=no
endheader
time	1LAddLong	2LGlutMax	3LGlutMed	4LIliopsoas	5LSemiMemb	6LBicFemLong	7LRecFem	8LVastMed	9LVastLat	10LGasMed	11LTibAnt	12lTibPost	13LPeroneusLong	14LSol	15LExtDigLong	16LFlexDigLong	17RAddLong	18RGlutMax	19RGlutMed	20RIliopsoas	21RSemiMemb	22RBicFemLong	23RRecFem	24RVastMed	25RVastLat	26RGasMed	27RTibAnt	28RTibPost	29RPeroneusLong	30RSol	31RExtDigLong	32RFlexDigLong
39.42	0.002899	0.14175	-0.050507	0.007324	-0.020142	0.019836	0.030365	0.020905	-0.06424	-0.028381	-0.11581	0.001831	0.036011	-0.008698	0.090332	-0.011139	-0.003204	0.49362	-0.092163	0.018921	0.020142	0.11017	0.28259	-0.028229	0.001068	0.026398	0.13473	0.001678	-0.2214	-0.031128	-0.001678	-0.006409
39.421	-0.000458	0.1297	-0.095673	0.006866	-0.012207	0.013123	0.10773	0.01358	-0.014191	-0.032806	-0.052032	0.003204	0.029755	0.066833	0.093994	-0.020447	0.007324	0.51788	-0.38956	0.014496	0.018005	0.084076	0.41855	-0.068817	-0.13367	0.002136	0.054321	-0.006866	-0.76736	0.001831	-0.005798	0.003967
39.422	0.010376	0.13199	-0.048065	-0.016174	-0.016937	0.027008	0.10086	0.016022	0.028381	-0.022125	-0.027313	0.005341	0.043335	0.073395	0.09079	-0.002136	0.009155	0.55985	-0.17242	-0.08255	0.023956	0.010223	0.36972	-0.14038	-0.24139	-0.014343	-0.078735	-0.009003	-0.26032	-0.01236	0.009918	0.001984
39.423	0.002594	0.15274	0.005035	-0.011292	-0.011902	0.018768	0.032501	0.012817	0.044861	-0.035553	0.006104	0.007477	0.048828	0.076904	0.15396	-0.014496	0.005646	0.59357	0.039673	-0.1004	-0.00885	-0.26032	0.24796	-0.16403	-0.27191	-0.02121	0.012207	-0.003204	-0.11505	0.088043	-0.008545	0.003204
39.424	0.010529	0.15457	0.034332	0.000305	-0.009613	0.027008	-0.032654	0.005646	0.057983	-0.024567	-0.018616	0.003204	0.045929	-0.031128	0.10773	-0.006561	0.003052	0.72769	-0.049896	-0.13611	-0.038147	-0.32166	-0.16907	-0.20691	-0.24033	-0.003052	0.079651	-0.005188	0.28992	0.016785	-0.003967	0.001678
39.425	0.00885	0.17502	0.00885	-0.00061	-0.011749	0.023041	-0.060425	0.002747	0.072937	-0.013123	-0.03952	0.006104	-0.005646	-0.096741	0.016785	-0.003815	-0.009003	0.58838	0.10376	-0.082397	-0.029144	-0.42343	-0.466	-0.21072	-0.019379	-0.001831	0.12894	-0.00061	0.29465	0.01236	-0.005646	0.001221
39.426	0.012817	0.16586	-0.00473	0.001068	-0.001526	0.017853	-0.061493	-0.002136	0.075531	-0.007629	-0.006561	0.007935	-0.054321	-0.067902	-0.046234	-0.012054	-0.01236	0.61401	-0.103	0.055389	-0.028992	-0.42084	-0.59479	-0.18936	0.15625	-0.000763	0.25024	-0.002899	-0.40695	0.018768	-0.004578	0.004578
39.427	0.002594	0.17212	0.00473	-0.010071	-0.014496	0.02655	-0.10239	0.003967	0.088501	0.01236	0.064087	0.007629	-0.036011	-0.026855	0.013885	-0.006409	0.003662	0.70175	0.014801	0.16037	-0.027924	-0.31982	-0.47043	-0.13107	0.23773	-0.001678	0.17242	-0.002289	0.34546	-0.010834	-0.005188	0.003204
39.428	0.008698	0.17227	-0.006256	0.010223	-0.010223	0.037231	-0.13031	0.005493	0.10864	0.007935	0.24063	0.006866	-0.035095	0.012207	0.023804	-0.010834	0.009918	0.7637	0.30365	0.074005	-0.002899	-0.17151	-0.168	0.18601	0.33951	-0.010529	0.10391	-0.005493	-0.15808	-0.035706	-0.00061	0.002289
39.429	0.011292	0.21103	0.001984	0.018463	-0.013733	0.04303	-0.1033	0.005798	0.12329	-0.001373	0.45868	0.008392	-0.046234	0.029907	0.25543	-0.003815	-0.009613	0.85007	0.40298	-0.037689	-0.001221	0.028381	-0.057678	0.44449	0.44327	-0.008545	0.045166	0.001678	-0.96405	-0.11108	-0.006561	-0.000458
39.43	0.009308	0.18219	-0.016937	-0.00824	-0.030212	0.038605	-0.077362	0.00824	0.12619	-0.046387	0.24948	0.008392	0.016632	-0.027618	0.28915	-0.005493	0.009613	0.77698	0.5365	-0.058136	-0.023041	0.070953	0.11139	0.17502	0.26428	0.007629	-0.006561	0.000305	0.60867	-0.21255	-0.00412	0.007172
39.431	0.007477	0.20584	-0.040436	0.001221	-0.032043	0.012054	-0.056305	0.009613	0.14832	-0.037079	-0.26245	0.004578	0.064545	0.006561	0.13336	0.001526	0.010986	0.8551	0.62592	-0.001221	-0.044556	0.08606	0.1648	0.011292	0.15243	0.000916	0.20783	-0.004578	0.53848	-0.091095	-0.008392	-0.019226
39.432	0.006256	0.19363	-0.029144	-0.010376	-0.045013	0.036316	-0.012817	0.006866	0.15656	0.016022	-0.33218	-0.000305	0.050964	0.027008	0.03952	-0.014343	0.01236	0.88272	0.83572	0.028229	-0.049744	0.34683	0.32028	0.025787	0.090027	-0.007172	0.17441	-0.006256	0.66376	0.10864	-0.007172	-0.007629
39.433	0.008698	0.2272	-0.018921	-0.000153	-0.046997	0.03067	0.026245	0.003662	0.16068	0.038147	-0.23392	0.007324	0.031586	-0.022583	-0.10254	-0.004883	0.015106	0.89615	0.93521	-0.004578	-0.04303	0.74463	0.25055	0.18875	0.066833	-0.00473	0.022888	-0.008087	0.22171	-0.007324	-0.008392	-0.005493
39.434	0.01297	0.20737	-0.017395	0.00946	-0.006561	0.019379	0.005798	0.005798	0.18127	0.043488	-0.16663	0.007324	0.028534	-0.041504	-0.18356	-0.009918	0.007019	0.8078	0.64621	0.033569	-0.010986	0.54962	0.033264	0.34103	0.01236	0.013275	-0.22507	-0.006866	-1.2094	-0.2887	-0.008545	0.00412
39.435	0.0177	0.20874	-0.019379	-0.002289	0.018616	0.048676	-0.018616	0.003967	0.17563	0.010681	-0.089569	0.006866	0.019073	-0.013123	-0.024872	-0.007477	0.007935	0.73852	0.45319	0.011292	-0.033417	0.12772	-0.19073	0.22247	-0.023041	0.018616	-0.23056	-0.001068	1.3432	-0.3685	-0.004272	0.001984
